<?xml version="1.0" encoding="UTF-8"?> <svg xmlns="http://www.w3.org/2000/svg" id="Calque_1" data-name="Calque 1" viewBox="0 0 1054.82 345"><defs><style> .cls-1 { fill: #231e46; } </style></defs><g><path class="cls-1" d="M183.25,181.37c-3.65-3.02-8.23-5.02-13.74-6-5.52-.98-11.83-1.56-18.95-1.73v-1.07c6.76-.17,12.81-.71,18.15-1.6,5.34-.89,9.83-2.71,13.48-5.47,3.64-2.76,6.4-6.76,8.27-12.01,1.87-5.24,2.8-12.32,2.8-21.21,0-15.65-2.94-26.46-8.81-32.42-5.87-5.96-16.46-8.94-31.76-8.94h-57.64v1.6c2.31,0,4.09.4,5.34,1.2,1.24.8,2.18,2.8,2.8,6,.62,3.2.98,8.1,1.07,14.68.09,6.58.13,15.66.13,27.22v66.71c0,11.57-.05,20.64-.13,27.22-.09,6.58-.45,11.47-1.07,14.68-.63,3.2-1.56,5.2-2.8,6-1.25.8-3.03,1.2-5.34,1.2v1.6h58.71c15.3,0,25.93-2.98,31.89-8.94,5.96-5.96,8.94-16.77,8.94-32.42,0-9.61-.98-17.3-2.94-23.08-1.96-5.78-4.76-10.18-8.41-13.21ZM143.36,92.24c2.13.18,4,.85,5.6,2,1.6,1.16,2.89,3.29,3.87,6.4.98,3.11,1.73,7.43,2.27,12.94.53,5.52.8,12.54.8,21.08,0,15.48-.98,25.66-2.94,30.55-1.96,4.9-5.07,7.34-9.34,7.34h-.27v-80.32ZM156.44,237.27c-.53,5.6-1.38,9.87-2.54,12.81-1.16,2.94-2.63,4.94-4.4,6-1.78,1.07-3.83,1.6-6.14,1.6v-83.79h.27c2.31,0,4.31.49,6,1.47,1.69.98,3.11,2.98,4.27,6,1.15,3.03,2,7.25,2.54,12.68.53,5.43.8,12.5.8,21.21s-.27,16.41-.8,22.01Z"></path><path class="cls-1" d="M271.18,126.26c-3.2-5.42-7.43-9.16-12.68-11.21-5.25-2.04-11.61-3.07-19.08-3.07s-13.79.98-18.95,2.94c-5.16,1.96-9.39,5.65-12.68,11.07-3.29,5.43-5.65,12.9-7.07,22.42-1.43,9.52-2.13,21.75-2.13,36.69s.71,27.58,2.13,37.36c1.42,9.79,3.78,17.48,7.07,23.08,3.29,5.6,7.51,9.52,12.68,11.74,5.16,2.22,11.47,3.34,18.95,3.34s13.83-1.11,19.08-3.34c5.25-2.22,9.47-6.14,12.68-11.74,3.2-5.6,5.51-13.3,6.94-23.08,1.42-9.78,2.13-22.24,2.13-37.36s-.71-26.91-2.13-36.43c-1.43-9.51-3.74-16.99-6.94-22.42ZM243.83,224.73c-.09,9.87-.31,17.35-.67,22.42-.36,5.07-.85,8.32-1.47,9.74-.63,1.43-1.38,2.14-2.27,2.14s-1.6-.71-2.13-2.14c-.53-1.42-.98-4.67-1.33-9.74-.36-5.07-.63-12.54-.8-22.42-.18-9.87-.27-23.17-.27-39.89s.09-29.89.27-39.49c.18-9.61.44-16.77.8-21.48.35-4.71.8-7.65,1.33-8.81.53-1.15,1.24-1.73,2.13-1.73s1.6.58,2.13,1.73c.53,1.16.98,4.09,1.33,8.81.35,4.72.62,11.88.8,21.48.18,9.61.27,22.77.27,39.49s-.05,30.02-.13,39.89Z"></path><path class="cls-1" d="M363.11,127.2c-3.47-10.67-10.01-16.01-19.61-16.01-7.65,0-13.12,2.71-16.41,8.14-3.29,5.43-5.03,15.26-5.2,29.49h-1.33c0-11.38.22-23.26.67-35.62.44-12.36.84-15.34,1.2-27.26-7.12,1.43-14.37,2.54-21.75,3.34-7.38.8-14.9,1.38-22.55,1.73v1.6c3.56,0,5.87.93,6.94,2.8,1.07,1.87,1.6,5.3,1.6,10.27v153.34h1.87c0-2.84.71-5.25,2.13-7.21,1.42-1.96,3.11-2.93,5.07-2.93,2.31,0,4.49.58,6.54,1.73,2.04,1.16,4.22,2.4,6.54,3.74,2.31,1.33,4.94,2.58,7.87,3.74,2.94,1.15,6.54,1.73,10.81,1.73,14.94,0,25.48-5.74,31.62-17.21,6.14-11.47,9.11-30.73,8.94-57.77.18-27.75-1.47-46.97-4.94-57.64ZM331.75,225.8c-.18,9.87-.45,17.21-.8,22.01-.36,4.8-.85,7.74-1.47,8.81-.63,1.07-1.38,1.6-2.27,1.6-1.78,0-2.94-1.07-3.47-3.2-.53-2.13-.8-5.42-.8-9.87v-70.72c0-9.61.09-17.17.27-22.68.17-5.51.44-9.65.8-12.41.35-2.76.8-4.49,1.33-5.2.53-.71,1.15-1.07,1.87-1.07.89,0,1.64.45,2.27,1.33.62.89,1.11,3.07,1.47,6.54.35,3.47.62,8.67.8,15.61.17,6.94.27,16.37.27,28.29,0,17.44-.09,31.09-.27,40.96Z"></path><path class="cls-1" d="M450.9,127.2c-3.47-10.67-10.01-16.01-19.61-16.01-7.65,0-13.12,2.71-16.41,8.14-3.29,5.43-5.03,15.26-5.2,29.49h-1.33c0-11.38.22-23.26.67-35.62.44-12.36.84-15.34,1.2-27.26-7.12,1.43-14.37,2.54-21.75,3.34-7.38.8-14.9,1.38-22.55,1.73v1.6c3.56,0,5.87.93,6.94,2.8,1.07,1.87,1.6,5.3,1.6,10.27v153.34h1.87c0-2.84.71-5.25,2.14-7.21,1.42-1.96,3.11-2.93,5.07-2.93,2.31,0,4.49.58,6.54,1.73,2.04,1.16,4.22,2.4,6.54,3.74,2.31,1.33,4.94,2.58,7.87,3.74,2.93,1.15,6.54,1.73,10.81,1.73,14.94,0,25.48-5.74,31.62-17.21,6.14-11.47,9.11-30.73,8.94-57.77.18-27.75-1.47-46.97-4.94-57.64ZM419.55,225.8c-.18,9.87-.45,17.21-.8,22.01-.36,4.8-.85,7.74-1.47,8.81-.63,1.07-1.38,1.6-2.27,1.6-1.78,0-2.94-1.07-3.47-3.2-.53-2.13-.8-5.42-.8-9.87v-70.72c0-9.61.09-17.17.27-22.68.17-5.51.44-9.65.8-12.41.35-2.76.8-4.49,1.33-5.2.53-.71,1.15-1.07,1.87-1.07.89,0,1.64.45,2.27,1.33.62.89,1.11,3.07,1.47,6.54.35,3.47.62,8.67.8,15.61.17,6.94.27,16.37.27,28.29,0,17.44-.09,31.09-.27,40.96Z"></path><path class="cls-1" d="M547.1,195.51h-1.6c.17,11.03.22,19.66.13,25.88-.09,6.23-.27,10.85-.53,13.88-.27,3.03-.58,4.85-.93,5.47-.36.63-.71.93-1.07.93-.71,0-1.2-.75-1.47-2.27-.27-1.51-.4-5.29-.4-11.34v-81.66c0-12.45-2.98-21.39-8.94-26.82-5.96-5.42-16.77-8.14-32.42-8.14-8.51,0-15.47,1.04-20.9,3.11-.31.12-.62.25-.92.37-.09.04-.18.07-.26.11-.48.21-.93.41-1.36.62,0,0,0,0,0,0-.46.22-.88.45-1.29.67-.03.02-.06.04-.09.05-4.67,2.72-6.22,5.88-6.29,6.02,0,0,0,.01,0,.02l.36.73c.62-.46,1.44-1.03,1.93-1.31,2.14-1.24,4.45-2.09,6.94-2.54,2.49-.44,4.98-.67,7.47-.67,5.87,0,10.58,1.43,14.14,4.27,3.56,2.85,5.34,8.19,5.34,16.01v6.94c0,8.36-.98,13.92-2.93,16.68-1.96,2.76-7.3,4.14-16.01,4.14s-15.84,3.52-20.28,10.54c-4.45,7.03-6.67,19.53-6.67,37.49-.18,17.08,1.56,29,5.2,35.76,3.64,6.76,10.36,10.14,20.15,10.14,6.94,0,12.14-2.36,15.61-7.07,3.47-4.71,5.56-12.58,6.27-23.62h1.6c.17,10.32,1.42,18.01,3.74,23.08,2.31,5.07,7.83,7.61,16.54,7.61,4.27,0,7.74-.85,10.41-2.54,2.67-1.69,4.71-4.89,6.14-9.61,1.42-4.71,2.27-11.34,2.54-19.88.27-8.54.22-19.57-.13-33.09ZM504.94,219.8c0,8.54-.45,13.83-1.33,15.88-.89,2.05-1.96,3.07-3.2,3.07-.53,0-1.07-.22-1.6-.67-.53-.44-1.03-1.64-1.47-3.6-.45-1.96-.76-4.89-.93-8.81-.18-3.91-.27-9.34-.27-16.28,0-8.71.35-15.83,1.07-21.35.71-5.51,1.51-9.96,2.4-13.34.89-3.38,1.82-6.09,2.8-8.14.98-2.04,1.82-4.04,2.54-6v59.24Z"></path><circle class="cls-1" cx="480.28" cy="141.46" r="18.25" transform="translate(40.64 381.04) rotate(-45)"></circle></g><g><path class="cls-1" d="M623.62,166.9h-1.56v12.18h-7.02v-30.34h13.91c6.02,0,10.14,3.64,10.14,9.1,0,4.51-2.77,7.85-7.07,8.71l11.31,12.44h-9.36l-10.36-12.09ZM622.06,162.13h5.16c2.69,0,4.38-1.52,4.38-3.86s-1.69-3.86-4.38-3.86h-5.16v7.72Z"></path><path class="cls-1" d="M652.88,154.85v5.46h11.4v6.2h-11.4v6.28h11.62v6.2h-18.6v-30.34h18.6v6.2h-11.62Z"></path><path class="cls-1" d="M690.55,169.32h-11.53l-3.77,9.67h-7.67l12.48-30.34h9.49l12.48,30.34h-7.72l-3.77-9.67ZM684.65,154.33c-.56,1.65-1.21,3.55-1.78,5.03l-1.65,4.33h7.15l-1.69-4.38c-.52-1.47-1.17-3.38-1.73-5.03h-.3v.04Z"></path><path class="cls-1" d="M715.74,148.74c9.67,0,16.3,6.16,16.3,15.13s-6.63,15.13-16.3,15.13h-10.45v-30.34h10.45v.09ZM724.41,163.91c0-5.16-3.64-8.8-8.71-8.8h-3.21v17.6h3.21c5.07,0,8.71-3.64,8.71-8.8Z"></path><path class="cls-1" d="M742.7,168.46l-10.97-19.81h8.19l6.33,12.74h.17l6.33-12.74h8.11l-10.97,19.81v10.53h-7.2v-10.53Z"></path><path class="cls-1" d="M805.22,155.15h-7.76v23.84h-7.2v-23.84h-7.76v-6.5h22.67l.04,6.5Z"></path><path class="cls-1" d="M823.82,179.6c-9.45,0-16.51-6.72-16.51-15.65s7.06-15.65,16.51-15.65,16.47,6.68,16.47,15.56-7.06,15.56-16.47,15.56v.17ZM832.75,163.99c0-5.37-3.68-9.15-8.93-9.15s-8.97,3.77-8.97,9.15,3.68,9.15,8.97,9.15,8.93-3.77,8.93-9.15Z"></path><path class="cls-1" d="M876.32,148.74c9.67,0,16.3,6.16,16.3,15.13s-6.63,15.13-16.3,15.13h-10.45v-30.34h10.45v.09ZM884.98,163.91c0-5.16-3.64-8.8-8.71-8.8h-3.21v17.6h3.21c5.07,0,8.71-3.64,8.71-8.8Z"></path><path class="cls-1" d="M905.88,166.9h-1.56v12.18h-7.02v-30.34h13.91c6.02,0,10.14,3.64,10.14,9.1,0,4.51-2.77,7.85-7.07,8.71l11.31,12.44h-9.36l-10.36-12.09ZM904.32,162.13h5.16c2.69,0,4.38-1.52,4.38-3.86s-1.69-3.86-4.38-3.86h-5.16v7.72Z"></path><path class="cls-1" d="M928.17,148.65h7.2v30.34h-7.2v-30.34Z"></path><path class="cls-1" d="M941.95,148.65h6.81l13.09,19.81.13-.04v-19.77h6.59v30.34h-6.81l-13.09-19.81-.13.04v19.77h-6.59v-30.34Z"></path><path class="cls-1" d="M982.4,165.94h-.04v13.05h-7.2v-30.34h7.2v13.13h.04l9.41-13.13h8.63l-11.7,14.87,11.92,15.47h-8.93l-9.32-13.05Z"></path><path class="cls-1" d="M638.66,222.95c0,4.9-3.68,8.06-9.54,8.06h-14.09v-30.34h13.83c5.72,0,9.32,3.12,9.32,7.93,0,3.42-1.82,5.9-4.68,6.98,3.16,1.08,5.16,3.77,5.16,7.37ZM622.06,206.52v6.37h5.29c2.17,0,3.51-1.3,3.51-3.21s-1.34-3.16-3.51-3.16h-5.29ZM627.39,225.12c2.43,0,3.9-1.39,3.9-3.51s-1.52-3.47-3.9-3.47h-5.33v6.98h5.33Z"></path><path class="cls-1" d="M656.26,231.36c-7.85,0-12.79-4.72-12.79-12.31v-18.42h7.33v18.29c0,3.64,2.17,5.9,5.55,5.9s5.5-2.25,5.5-5.85v-18.29h7.2v18.42c0,7.54-4.9,12.35-12.74,12.35l-.04-.09Z"></path><path class="cls-1" d="M698.96,222.95c0,4.9-3.68,8.06-9.54,8.06h-14.09v-30.34h13.83c5.72,0,9.32,3.12,9.32,7.93,0,3.42-1.82,5.9-4.68,6.98,3.16,1.08,5.16,3.77,5.16,7.37ZM682.36,206.52v6.37h5.29c2.17,0,3.51-1.3,3.51-3.21s-1.34-3.16-3.51-3.16h-5.29ZM687.69,225.12c2.43,0,3.9-1.39,3.9-3.51s-1.52-3.47-3.9-3.47h-5.33v6.98h5.33Z"></path><path class="cls-1" d="M727.87,222.95c0,4.9-3.68,8.06-9.54,8.06h-14.09v-30.34h13.83c5.72,0,9.32,3.12,9.32,7.93,0,3.42-1.82,5.9-4.68,6.98,3.16,1.08,5.16,3.77,5.16,7.37ZM711.27,206.52v6.37h5.29c2.17,0,3.51-1.3,3.51-3.21s-1.34-3.16-3.51-3.16h-5.29ZM716.6,225.12c2.43,0,3.9-1.39,3.9-3.51s-1.52-3.47-3.9-3.47h-5.33v6.98h5.33Z"></path><path class="cls-1" d="M751.41,224.51v6.5h-18.25v-30.34h7.2v23.84h11.05Z"></path><path class="cls-1" d="M762.43,206.87v5.46h11.4v6.2h-11.4v6.28h11.62v6.2h-18.6v-30.34h18.6v6.2h-11.62Z"></path><path class="cls-1" d="M814.36,207.17h-7.76v23.84h-7.2v-23.84h-7.76v-6.5h22.67l.04,6.5Z"></path><path class="cls-1" d="M825.33,206.87v5.46h11.4v6.2h-11.4v6.28h11.62v6.2h-18.6v-30.34h18.6v6.2h-11.62Z"></path><path class="cls-1" d="M863,221.35h-11.53l-3.77,9.67h-7.67l12.48-30.34h9.49l12.48,30.34h-7.72l-3.77-9.67ZM857.11,206.35c-.56,1.65-1.21,3.55-1.78,5.03l-1.65,4.34h7.15l-1.69-4.38c-.52-1.47-1.17-3.38-1.73-5.03h-.3v.04Z"></path></g><rect class="cls-1" x="764.99" y="163.62" width="10.77" height="5.59"></rect><rect class="cls-1" x="845.13" y="163.62" width="10.77" height="5.59"></rect></svg> 